<?xml version="1.0" encoding="utf-8"?>
<svg version="1.0" width="439px" height="413px" viewBox="-11.814 -12.328 477.526 445.362" preserveAspectRatio="xMidYMid meet" xmlns="http://www.w3.org/2000/svg">
  <g fill="#c21f1f">
    <path d="M 150.773 413.463 C 150.127 414.222 141.469 409.525 139.053 408.857 L 100.3 373.1 L 91.4 382.1 L 82.5 391.1 L 37.971 383.479 C 37.971 383.479 6.4 356.4 6.2 356 C 5.9 355.1 17.8 342.5 52.5 307 C 81.2 277.6 186.5 172.2 192.5 166.9 C 194.7 164.9 198.2 161.2 200.4 158.6 C 204.7 153.3 204.7 153.6 200.1 141 C 196.6 131.5 194 117.5 194 108.5 C 194 99.2 196.5 81.3 199 73 C 205.1 52.4 218.5 36.1 241 21.6 C 247.8 17.2 269.7 7 276.6 5 C 286.9 2 302.5 0.7 319.7 1.3 C 347.6 2.3 363.7 7.5 381.6 21.1 C 392 29 399.342 35.929 406.099 44.055 C 408.881 47.401 417.184 57.79 419.139 61.103 C 426.154 72.987 427.654 80.63 432.615 95.332 L 434.572 111.177 L 434.298 122.942 C 433.598 130.742 432.307 137.983 430.707 143.883 C 427.907 153.983 420.998 167.175 417.298 170.575 C 416.198 171.575 412.522 174.825 412.522 175.425 C 412.522 177.625 398.1 196 390.1 201.2 C 382.2 206.4 376.1 209.4 360.3 216.1 C 344.7 222.6 320.6 226.8 304.2 225.6 C 293.8 224.9 290.3 224.2 268.4 218.6 C 252.8 214.6 251.6 214.7 246.5 219.8 C 244.8 221.4 228.5 237.8 210.1 256.2 L 176.7 289.8 L 194.8 309 C 204.8 319.6 212.7 328.6 212.5 329 C 212.2 329.5 218.967 341.06 218.967 341.76 C 218.967 342.36 217.9 343.3 214.1 347.7 L 207.2 355.6 L 193.006 352.276 C 189.012 349.243 157.608 321.729 149.576 315.048 C 145.157 311.372 140 332.5 140 332.5 L 126.1 346.3 C 126.1 346.3 160.182 384.557 160.7 385.2 C 161.218 385.843 166.211 397.339 165.999 397.691 C 165.167 399.072 151.38 412.75 150.773 413.463 Z M 326.3 161 C 347.1 155.8 368.8 138.6 376.5 121.5 C 381.2 111 382.4 106 382.3 96.5 C 382.2 89.9 381.7 86 380.1 82 C 376.9 73.6 370.22 64.483 367.4 61.5 C 365.057 59.022 350.03 48.479 336.133 45.064 C 299.393 36.036 269.054 59.114 278.716 69.581 C 278.716 69.581 266.729 82.147 259.384 94.718 C 254.39 103.266 253.63 105.985 252.517 107.115 C 247.137 112.576 245.232 133.319 253.705 140.965 C 266.045 152.101 269.7 155 286.5 160.1 C 298.3 163.6 314.5 164 326.3 161 Z" style="fill: rgb(228, 167, 11);"/>
  </g>
  <g fill="#630f0f">
    <path d="M 166.679 397.703 C 166.497 398.257 151.606 413.742 150.785 413.702 C 149.681 413.648 139 408.8 139 408.8 L 142.9 405.1 C 145 403.1 160.817 385.382 160.817 385.382 C 160.817 385.382 166.898 397.038 166.679 397.703 Z" style="fill: rgb(143, 94, 14);"/>
    <path d="M 82.47 391.295 C 82.097 391.318 38.227 383.967 37.727 383.467 C 37.327 383.067 72.396 348.125 72.396 348.125 L 83.3 358.7 C 85.6 360.8 88.6 363.4 89.9 364.5 C 91.3 365.6 94.1 368 96.2 369.9 L 100.1 373.3 L 91.3 382.2 C 83.8 389.7 83.041 391.26 82.47 391.295 Z" style="fill: rgb(143, 94, 14);"/>
    <path d="M 205.057 357.543 C 204.957 357.443 193.3 352.6 193.1 352.4 C 192.9 352.2 197.1 347.1 202.5 341 L 212.317 328.948 C 212.317 328.948 219.571 341.314 219.454 341.897 C 219.257 342.877 205.657 357.843 205.057 357.543 Z" style="fill: rgb(143, 94, 14);"/>
    <path d="M 126.144 346.369 C 126.144 346.386 106.882 324.982 106.882 324.982 L 131.818 298.721 L 153.958 318.728 L 140 332.5 C 132.6 339.9 126.144 346.352 126.144 346.369 Z" style="fill: rgb(143, 94, 14);"/>
    <path d="M 172.5 284.3 C 170.3 281.7 165.6 276.5 162.1 272.8 L 155.8 266 L 158.4 262.9 C 159.8 261.2 227.2 196.1 232.1 191.3 C 240.3 183.3 241.1 182.8 242.7 184.2 C 245.6 186.8 253.438 189.624 269.091 194.91 C 276.876 197.195 292.717 200.004 304.386 199.305 C 320.236 198.356 338.373 195.328 344.804 193.327 C 349.619 191.829 363.8 186.9 376.3 178.6 C 397.3 164.8 408.3 149.6 417 122.5 C 417.826 119.828 419.299 114.699 419.952 107.132 C 420.645 99.12 420.497 88.714 420.6 88.2 C 420.9 87.3 420.2 81.2 419.1 74.8 C 416.4 59.8 417.232 58.572 420.537 64.127 C 428.394 77.334 425.847 72.203 433.94 93.987 L 436.604 111.995 L 435.803 124.395 C 435.103 132.195 433.104 141.396 431.504 147.296 C 428.704 157.396 415.61 177.958 411.91 181.358 C 410.81 182.358 398.1 196 390.1 201.2 C 382.2 206.4 376.1 209.4 360.3 216.1 C 344.7 222.6 320.6 226.8 304.2 225.6 C 293.8 224.9 290.3 224.2 268.4 218.6 C 252 214.4 251.3 214.5 244.7 221.5 C 238 228.7 178 288.5 177.2 288.8 C 176.8 288.9 174.7 286.9 172.5 284.3 Z" style="fill: rgb(143, 94, 14);"/>
    <path d="M 246.1 128 C 245.191 125.701 241.325 113.885 240.846 102.076 C 240.429 91.797 243.211 81.432 244.7 78.5 C 246.578 74.851 251.82 66.494 259.179 60.019 C 265.533 54.428 273.793 49.459 276.156 48.347 C 289.056 42.047 295.161 41.336 306.861 40.136 C 322.461 38.536 336.052 42.27 349.852 49.47 C 357.452 53.47 360.161 55.98 360.061 56.023 C 359.985 56.099 357.456 55.633 355.036 55.256 C 351.765 54.748 347.696 54.515 341.828 54.445 C 334.96 54.364 327.214 55.588 319.928 56.757 C 310.009 58.348 299.648 62.309 291.909 67.041 C 273.412 78.35 263.67 93.782 260.575 99.812 C 258.546 103.766 254.536 111.286 252.735 118.035 C 250.141 127.755 251.173 137.504 250.878 137.504 C 250.478 137.504 247.8 132.4 246.1 128 Z" style="fill: rgb(143, 94, 14);"/>
  </g>
</svg>